{"title":"Unconditional.2012.WEBRip XViD juggs","uid":8247688,"size":747841135,"categoryP":"video","categoryS":"movies","magnet":"?xt=urn:btih:38e32457e337352a9f33a035bbd7a4972b2913b0&amp;dn=Unconditional.2012.WEBRip+XViD+juggs&amp;tr=udp%3A%2F%2Ftracker.openbittorrent.com%3A80&amp;tr=udp%3A%2F%2Fopen.demonii.com%3A1337&amp;tr=udp%3A%2F%2Ftracker.coppersurfer.tk%3A6969&amp;tr=udp%3A%2F%2Fexodus.desync.com%3A6969","seeders":1,"leechers":0,"uploader":"juggs99","files":3,"time":1363097244,"description":"Source : NGB\n\nFormat : AVI\nFormat/Info : Audio Video Interleave\nFile size : 701 MiB\nDuration : 1h 37mn\nOverall bit rate : 1 000 Kbps\nWriting library : VirtualDub build 32842/release\n\nVideo\nID : 0\nFormat : MPEG-4 Visual\nFormat profile : Advanced Simple@L5\nFormat settings, BVOP : 4\nFormat settings, QPel : No\nFormat settings, GMC : No warppoints\nFormat settings, Matrix : Default (H.263)\nMuxing mode : Packed bitstream\nCodec ID : XVID\nCodec ID/Hint : XviD\nDuration : 1h 37mn\nBit rate : 863 Kbps\nWidth : 640 pixels\nHeight : 352 pixels\nDisplay aspect ratio : 16:9\nFrame rate : 23.976 fps\nColor space : YUV\nChroma subsampling : 4:2:0\nBit depth : 8 bits\nScan type : Progressive\nCompression mode : Lossy\nBits/(Pixel*Frame) : 0.160\nStream size : 605 MiB (86%)\nWriting library : XviD 64\n\nAudio\nID : 1\nFormat : MPEG Audio\nFormat version : Version 1\nFormat profile : Layer 3\nCodec ID : 55\nCodec ID/Hint : MP3\nDuration : 1h 37mn\nBit rate mode : Constant\nBit rate : 128 Kbps\nChannel(s) : 2 channels\nSampling rate : 44.1 KHz\nCompression mode : Lossy\nStream size : 89.7 MiB (13%)\nAlignment : Split accross interleaves\nInterleave, duration : 42 ms (1.00 video frame)\nInterleave, preload duration : 500 ms\nWriting library : LAME3.99r\nEncoding settings : -m s -V 4 -q 3 -lowpass 17 -b 128\n\n\nPlot\nA woman's idyllic life is shattered when her husband is killed in a senseless act of violence. As she prepares to take matters into her own hands, two unexpected encounters begin to change everything.\n\n &lt;a href=&quot;\nhttp://www.shotpix.com/images/84357786953377843332.png&quot; rel=&quot;nofollow&quot; target=&quot;_NEW&quot;&gt;\nhttp://www.shotpix.com/images/84357786953377843332.png&lt;/a&gt; &lt;a href=&quot;\nhttp://www.shotpix.com/images/14582535211750212592.png&quot; rel=&quot;nofollow&quot; target=&quot;_NEW&quot;&gt;\nhttp://www.shotpix.com/images/14582535211750212592.png&lt;/a&gt; &lt;a href=&quot;\nhttp://www.shotpix.com/images/10893424394370661497.png&quot; rel=&quot;nofollow&quot; target=&quot;_NEW&quot;&gt;\nhttp://www.shotpix.com/images/10893424394370661497.png&lt;/a&gt;","torrent":{"xt":"urn:btih:38e32457e337352a9f33a035bbd7a4972b2913b0","amp;dn":"Unconditional.2012.WEBRip+XViD+juggs","amp;tr":["udp%3A%2F%2Ftracker.openbittorrent.com%3A80","udp%3A%2F%2Fopen.demonii.com%3A1337","udp%3A%2F%2Ftracker.coppersurfer.tk%3A6969","udp%3A%2F%2Fexodus.desync.com%3A6969"],"infoHash":"38e32457e337352a9f33a035bbd7a4972b2913b0","infoHashBuffer":{"type":"Buffer","data":[56,227,36,87,227,55,53,42,159,51,160,53,187,215,164,151,43,41,19,176]},"announce":[],"urlList":[]}}